<?xml version="1.0" encoding="utf-8" ?>
<svg baseProfile="tiny" height="631" version="1.2" viewBox="0 0 4586 2826" width="1024" xmlns="http://www.w3.org/2000/svg" xmlns:ev="http://www.w3.org/2001/xml-events" xmlns:xlink="http://www.w3.org/1999/xlink"><defs /><line stroke="#333" stroke-width="10" x1="1861" x2="1797" y1="1637" y2="1637" /><line stroke="#333" stroke-width="10" x1="1797" x2="1797" y1="1637" y2="1605" /><line stroke="#333" stroke-width="10" x1="1861" x2="1861" y1="1605" y2="1637" /><line stroke="#333" stroke-width="10" x1="1925" x2="1861" y1="1605" y2="1605" /><line stroke="#333" stroke-width="10" x1="1797" x2="1733" y1="1605" y2="1605" /><line stroke="#333" stroke-width="10" x1="2053" x2="1925" y1="1509" y2="1605" /><line stroke="#333" stroke-width="10" x1="1733" x2="1605" y1="1605" y2="1509" /><line stroke="#333" stroke-width="10" x1="2117" x2="2053" y1="1509" y2="1509" /><line stroke="#333" stroke-width="10" x1="1605" x2="1477" y1="1509" y2="1509" /><line stroke="#333" stroke-width="10" x1="1669" x2="1701" y1="1349" y2="1349" /><line stroke="#333" stroke-width="10" x1="1701" x2="1701" y1="1349" y2="1317" /><line stroke="#333" stroke-width="10" x1="1701" x2="1669" y1="1317" y2="1317" /><line stroke="#333" stroke-width="10" x1="1669" x2="1669" y1="1317" y2="1349" /><line stroke="#333" stroke-width="10" x1="1957" x2="1989" y1="1349" y2="1349" /><line stroke="#333" stroke-width="10" x1="1989" x2="1989" y1="1349" y2="1317" /><line stroke="#333" stroke-width="10" x1="1989" x2="1957" y1="1317" y2="1317" /><line stroke="#333" stroke-width="10" x1="1957" x2="1957" y1="1317" y2="1349" /><line stroke="#333" stroke-width="10" x1="1669" x2="1669" y1="1029" y2="1061" /><line stroke="#333" stroke-width="10" x1="1669" x2="1701" y1="1061" y2="1061" /><line stroke="#333" stroke-width="10" x1="1701" x2="1701" y1="1061" y2="1029" /><line stroke="#333" stroke-width="10" x1="1701" x2="1669" y1="1029" y2="1029" /><line stroke="#333" stroke-width="10" x1="1989" x2="1957" y1="1029" y2="1029" /><line stroke="#333" stroke-width="10" x1="1957" x2="1957" y1="1029" y2="1061" /><line stroke="#333" stroke-width="10" x1="1957" x2="1989" y1="1061" y2="1061" /><line stroke="#333" stroke-width="10" x1="1989" x2="1989" y1="1061" y2="1029" /><line stroke="#333" stroke-width="10" x1="2117" x2="2117" y1="1317" y2="1509" /><line stroke="#999" stroke-width="3" x1="2117" x2="2117" y1="1221" y2="1317" /><line stroke="#333" stroke-width="10" x1="2117" x2="2117" y1="1157" y2="1221" /><line stroke="#333" stroke-width="10" x1="2117" x2="2117" y1="837" y2="1061" /><line stroke="#999" stroke-width="3" x1="2117" x2="2117" y1="1061" y2="1157" /><line stroke="#999" stroke-width="3" x1="2149" x2="2149" y1="1157" y2="1061" /><line stroke="#999" stroke-width="3" x1="2149" x2="2149" y1="1317" y2="1221" /><line stroke="#333" stroke-width="10" x1="2117" x2="2149" y1="1221" y2="1221" /><line stroke="#333" stroke-width="10" x1="2149" x2="2117" y1="1317" y2="1317" /><line stroke="#333" stroke-width="10" x1="2149" x2="2117" y1="1157" y2="1157" /><line stroke="#333" stroke-width="10" x1="2117" x2="2149" y1="1061" y2="1061" /><line stroke="#333" stroke-width="10" x1="2149" x2="2149" y1="1221" y2="1157" /><line stroke="#333" stroke-width="10" x1="2149" x2="2149" y1="1605" y2="1317" /><line stroke="#333" stroke-width="10" x1="2149" x2="2149" y1="1061" y2="901" /><line stroke="#999" stroke-width="3" x1="1957" x2="1701" y1="1349" y2="1349" /><line stroke="#999" stroke-width="3" x1="2117" x2="1989" y1="1317" y2="1349" /><line stroke="#999" stroke-width="3" x1="1989" x2="2117" y1="1029" y2="1061" /><line stroke="#333" stroke-width="10" x1="1477" x2="1605" y1="901" y2="901" /><line stroke="#333" stroke-width="10" x1="1605" x2="1741" y1="901" y2="837" /><line stroke="#333" stroke-width="10" x1="1741" x2="1989" y1="837" y2="837" /><line stroke="#333" stroke-width="10" x1="2149" x2="2245" y1="901" y2="837" /><line stroke="#333" stroke-width="10" x1="2245" x2="2629" y1="837" y2="837" /><line stroke="#333" stroke-width="10" x1="2301" x2="2149" y1="1637" y2="1605" /><line stroke="#333" stroke-width="10" x1="2445" x2="2301" y1="1701" y2="1637" /><line stroke="#999" stroke-width="3" x1="1861" x2="1797" y1="1605" y2="1605" /><line stroke="#999" stroke-width="3" x1="1701" x2="1957" y1="1061" y2="1061" /><line stroke="#999" stroke-width="3" x1="1957" x2="1701" y1="1317" y2="1317" /><line stroke="#999" stroke-width="3" x1="1701" x2="1701" y1="1317" y2="1061" /><line stroke="#999" stroke-width="3" x1="1669" x2="1669" y1="1317" y2="1061" /><line stroke="#999" stroke-width="3" x1="1701" x2="1957" y1="1029" y2="1029" /><line stroke="#333" stroke-width="10" x1="1477" x2="1477" y1="1509" y2="1317" /><line stroke="#333" stroke-width="10" x1="1477" x2="1477" y1="1061" y2="901" /><line stroke="#999" stroke-width="3" x1="1477" x2="1477" y1="1061" y2="1317" /><line stroke="#333" stroke-width="10" x1="1285" x2="1285" y1="1285" y2="1261" /><line stroke="#333" stroke-width="10" x1="1285" x2="1285" y1="1117" y2="1093" /><line stroke="#333" stroke-width="10" x1="1285" x2="1453" y1="1093" y2="1061" /><line stroke="#333" stroke-width="10" x1="1453" x2="1477" y1="1061" y2="1061" /><line stroke="#333" stroke-width="10" x1="1477" x2="1453" y1="1317" y2="1317" /><line stroke="#333" stroke-width="10" x1="1453" x2="1285" y1="1317" y2="1285" /><line stroke="#999" stroke-width="3" x1="1269" x2="1269" y1="1117" y2="1261" /><line stroke="#333" stroke-width="10" x1="1285" x2="1269" y1="1261" y2="1261" /><line stroke="#333" stroke-width="10" x1="1269" x2="1285" y1="1117" y2="1117" /><line stroke="#333" stroke-width="10" x1="1269" x2="1269" y1="1261" y2="1285" /><line stroke="#333" stroke-width="10" x1="1269" x2="1221" y1="1285" y2="1413" /><line stroke="#333" stroke-width="10" x1="1221" x2="901" y1="1413" y2="1413" /><line stroke="#333" stroke-width="10" x1="901" x2="1221" y1="965" y2="965" /><line stroke="#333" stroke-width="10" x1="1269" x2="1269" y1="1093" y2="1117" /><line stroke="#333" stroke-width="10" x1="1221" x2="1269" y1="965" y2="1093" /><line stroke="#999" stroke-width="3" x1="901" x2="933" y1="1221" y2="1221" /><line stroke="#999" stroke-width="3" x1="933" x2="965" y1="1221" y2="1221" /><line stroke="#999" stroke-width="3" x1="965" x2="997" y1="1221" y2="1221" /><line stroke="#999" stroke-width="3" x1="997" x2="1029" y1="1221" y2="1221" /><line stroke="#999" stroke-width="3" x1="1029" x2="1061" y1="1221" y2="1221" /><line stroke="#999" stroke-width="3" x1="1061" x2="1093" y1="1221" y2="1221" /><line stroke="#999" stroke-width="3" x1="1093" x2="1093" y1="1221" y2="1157" /><line stroke="#999" stroke-width="3" x1="1093" x2="1061" y1="1157" y2="1157" /><line stroke="#999" stroke-width="3" x1="1061" x2="1029" y1="1157" y2="1157" /><line stroke="#999" stroke-width="3" x1="1029" x2="997" y1="1157" y2="1157" /><line stroke="#999" stroke-width="3" x1="997" x2="965" y1="1157" y2="1157" /><line stroke="#999" stroke-width="3" x1="965" x2="933" y1="1157" y2="1157" /><line stroke="#999" stroke-width="3" x1="933" x2="901" y1="1157" y2="1157" /><line stroke="#999" stroke-width="3" x1="933" x2="933" y1="1221" y2="1157" /><line stroke="#999" stroke-width="3" x1="965" x2="965" y1="1221" y2="1157" /><line stroke="#999" stroke-width="3" x1="997" x2="997" y1="1221" y2="1157" /><line stroke="#999" stroke-width="3" x1="1029" x2="1029" y1="1221" y2="1157" /><line stroke="#999" stroke-width="3" x1="1061" x2="1061" y1="1221" y2="1157" /><line stroke="#999" stroke-width="3" x1="901" x2="901" y1="1221" y2="1157" /><line stroke="#999" stroke-width="3" x1="901" x2="837" y1="1157" y2="1029" /><line stroke="#333" stroke-width="10" x1="837" x2="901" y1="1029" y2="965" /><line stroke="#333" stroke-width="10" x1="901" x2="837" y1="1413" y2="1349" /><line stroke="#999" stroke-width="3" x1="837" x2="901" y1="1349" y2="1221" /><line stroke="#333" stroke-width="10" x1="837" x2="821" y1="1349" y2="1349" /><line stroke="#333" stroke-width="10" x1="821" x2="709" y1="1349" y2="1285" /><line stroke="#333" stroke-width="10" x1="709" x2="821" y1="1093" y2="1029" /><line stroke="#333" stroke-width="10" x1="821" x2="837" y1="1029" y2="1029" /><line stroke="#333" stroke-width="10" x1="517" x2="453" y1="1285" y2="1253" /><line stroke="#333" stroke-width="10" x1="453" x2="517" y1="1125" y2="1093" /><line stroke="#333" stroke-width="10" x1="645" x2="645" y1="1077" y2="1093" /><line stroke="#333" stroke-width="10" x1="517" x2="517" y1="1093" y2="1077" /><line stroke="#333" stroke-width="10" x1="517" x2="517" y1="1301" y2="1285" /><line stroke="#333" stroke-width="10" x1="645" x2="645" y1="1285" y2="1301" /><line stroke="#333" stroke-width="10" x1="453" x2="437" y1="1253" y2="1253" /><line stroke="#333" stroke-width="10" x1="437" x2="453" y1="1125" y2="1125" /><line stroke="#333" stroke-width="10" x1="517" x2="437" y1="1077" y2="1077" /><line stroke="#333" stroke-width="10" x1="437" x2="437" y1="1077" y2="1125" /><line stroke="#333" stroke-width="10" x1="437" x2="437" y1="1253" y2="1301" /><line stroke="#333" stroke-width="10" x1="437" x2="517" y1="1301" y2="1301" /><line stroke="#333" stroke-width="10" x1="645" x2="677" y1="1301" y2="1301" /><line stroke="#333" stroke-width="10" x1="677" x2="837" y1="1301" y2="1477" /><line stroke="#333" stroke-width="10" x1="677" x2="645" y1="1077" y2="1077" /><line stroke="#333" stroke-width="10" x1="837" x2="677" y1="901" y2="1077" /><line stroke="#999" stroke-width="3" x1="709" x2="709" y1="1093" y2="1285" /><line stroke="#999" stroke-width="3" x1="645" x2="517" y1="1285" y2="1285" /><line stroke="#999" stroke-width="3" x1="517" x2="645" y1="1301" y2="1301" /><line stroke="#999" stroke-width="3" x1="517" x2="645" y1="1093" y2="1093" /><line stroke="#999" stroke-width="3" x1="645" x2="517" y1="1077" y2="1077" /><line stroke="#999" stroke-width="3" x1="453" x2="453" y1="1253" y2="1125" /><line stroke="#999" stroke-width="3" x1="437" x2="437" y1="1125" y2="1253" /><line stroke="#333" stroke-width="10" x1="837" x2="837" y1="773" y2="901" /><line stroke="#333" stroke-width="10" x1="837" x2="837" y1="1477" y2="1605" /><line stroke="#333" stroke-width="10" x1="837" x2="133" y1="1605" y2="1605" /><line stroke="#333" stroke-width="10" x1="133" x2="5" y1="1605" y2="1477" /><line stroke="#333" stroke-width="10" x1="5" x2="5" y1="1477" y2="901" /><line stroke="#333" stroke-width="10" x1="5" x2="133" y1="901" y2="773" /><line stroke="#333" stroke-width="10" x1="133" x2="837" y1="773" y2="773" /><line stroke="#999" stroke-width="3" x1="837" x2="133" y1="1605" y2="1477" /><line stroke="#999" stroke-width="3" x1="133" x2="133" y1="1477" y2="901" /><line stroke="#999" stroke-width="3" x1="133" x2="837" y1="901" y2="773" /><line stroke="#333" stroke-width="10" x1="645" x2="685" y1="1093" y2="1093" /><line stroke="#333" stroke-width="10" x1="685" x2="709" y1="1093" y2="1093" /><line stroke="#333" stroke-width="10" x1="709" x2="685" y1="1285" y2="1285" /><line stroke="#333" stroke-width="10" x1="685" x2="645" y1="1285" y2="1285" /><line stroke="#999" stroke-width="3" x1="1029" x2="1093" y1="1093" y2="1093" /><line stroke="#999" stroke-width="3" x1="1093" x2="1093" y1="1093" y2="1029" /><line stroke="#999" stroke-width="3" x1="1093" x2="1029" y1="1029" y2="1029" /><line stroke="#999" stroke-width="3" x1="1029" x2="1029" y1="1029" y2="1093" /><line stroke="#999" stroke-width="3" x1="1029" x2="1093" y1="1349" y2="1349" /><line stroke="#999" stroke-width="3" x1="1093" x2="1093" y1="1349" y2="1285" /><line stroke="#999" stroke-width="3" x1="1093" x2="1029" y1="1285" y2="1285" /><line stroke="#999" stroke-width="3" x1="1029" x2="1029" y1="1285" y2="1349" /><line stroke="#333" stroke-width="10" x1="1989" x2="2021" y1="837" y2="485" /><line stroke="#333" stroke-width="10" x1="2157" x2="2117" y1="549" y2="837" /><line stroke="#333" stroke-width="10" x1="2245" x2="2157" y1="517" y2="549" /><line stroke="#333" stroke-width="10" x1="2021" x2="2245" y1="485" y2="389" /><line stroke="#999" stroke-width="3" x1="2117" x2="1989" y1="837" y2="837" /><line stroke="#999" stroke-width="3" x1="2245" x2="2245" y1="389" y2="517" /><line stroke="#999" stroke-width="3" x1="2309" x2="2309" y1="389" y2="517" /><line stroke="#999" stroke-width="3" x1="2325" x2="2325" y1="517" y2="389" /><line stroke="#333" stroke-width="10" x1="2309" x2="2245" y1="517" y2="517" /><line stroke="#333" stroke-width="10" x1="2245" x2="2309" y1="389" y2="389" /><line stroke="#333" stroke-width="10" x1="2309" x2="2325" y1="389" y2="389" /><line stroke="#333" stroke-width="10" x1="2325" x2="2309" y1="517" y2="517" /><line stroke="#333" stroke-width="10" x1="2437" x2="2325" y1="517" y2="517" /><line stroke="#333" stroke-width="10" x1="2325" x2="2437" y1="389" y2="389" /><line stroke="#333" stroke-width="10" x1="3509" x2="3261" y1="1605" y2="1701" /><line stroke="#333" stroke-width="10" x1="3261" x2="3013" y1="1701" y2="1733" /><line stroke="#333" stroke-width="10" x1="2757" x2="2445" y1="1733" y2="1701" /><line stroke="#333" stroke-width="10" x1="2629" x2="2693" y1="837" y2="877" /><line stroke="#333" stroke-width="10" x1="2693" x2="3013" y1="877" y2="877" /><line stroke="#999" stroke-width="3" x1="2293" x2="2445" y1="1125" y2="1061" /><line stroke="#999" stroke-width="3" x1="2445" x2="2669" y1="1061" y2="1061" /><line stroke="#999" stroke-width="3" x1="2669" x2="2813" y1="1061" y2="1101" /><line stroke="#999" stroke-width="3" x1="2813" x2="2901" y1="1101" y2="1229" /><line stroke="#999" stroke-width="3" x1="2901" x2="2837" y1="1229" y2="1365" /><line stroke="#999" stroke-width="3" x1="2837" x2="2557" y1="1365" y2="1405" /><line stroke="#999" stroke-width="3" x1="2557" x2="2317" y1="1405" y2="1341" /><line stroke="#999" stroke-width="3" x1="2317" x2="2293" y1="1341" y2="1125" /><line stroke="#333" stroke-width="10" x1="3525" x2="3397" y1="741" y2="741" /><line stroke="#333" stroke-width="10" x1="3293" x2="3525" y1="517" y2="517" /><line stroke="#333" stroke-width="10" x1="3525" x2="3717" y1="517" y2="613" /><line stroke="#333" stroke-width="10" x1="3653" x2="3653" y1="869" y2="837" /><line stroke="#333" stroke-width="10" x1="3821" x2="3821" y1="837" y2="901" /><line stroke="#333" stroke-width="10" x1="3525" x2="3525" y1="1005" y2="869" /><line stroke="#333" stroke-width="10" x1="3525" x2="3525" y1="1541" y2="1317" /><line stroke="#333" stroke-width="10" x1="3509" x2="3509" y1="1317" y2="1605" /><line stroke="#333" stroke-width="10" x1="3525" x2="3509" y1="1317" y2="1317" /><line stroke="#333" stroke-width="10" x1="3821" x2="4077" y1="901" y2="997" /><line stroke="#999" stroke-width="3" x1="3909" x2="4077" y1="1029" y2="997" /><line stroke="#999" stroke-width="3" x1="3885" x2="3717" y1="1317" y2="1493" /><line stroke="#999" stroke-width="3" x1="3589" x2="3885" y1="1189" y2="1317" /><line stroke="#999" stroke-width="3" x1="4053" x2="3757" y1="1277" y2="1157" /><line stroke="#999" stroke-width="3" x1="3749" x2="3589" y1="1029" y2="1189" /><line stroke="#999" stroke-width="3" x1="3757" x2="3909" y1="1157" y2="1029" /><line stroke="#333" stroke-width="10" x1="4037" x2="3845" y1="1573" y2="1605" /><line stroke="#333" stroke-width="10" x1="3717" x2="3525" y1="1605" y2="1541" /><line stroke="#333" stroke-width="10" x1="3845" x2="3845" y1="1605" y2="1957" /><line stroke="#333" stroke-width="10" x1="3717" x2="3717" y1="1733" y2="1605" /><line stroke="#999" stroke-width="3" x1="3525" x2="3717" y1="741" y2="613" /><line stroke="#999" stroke-width="3" x1="3525" x2="3717" y1="1317" y2="1493" /><line stroke="#999" stroke-width="3" x1="3717" x2="3845" y1="1493" y2="1605" /><line stroke="#999" stroke-width="3" x1="3525" x2="3821" y1="1005" y2="837" /><line stroke="#999" stroke-width="3" x1="3717" x2="3525" y1="1493" y2="1541" /><line stroke="#999" stroke-width="3" x1="3877" x2="4053" y1="1509" y2="1277" /><line stroke="#999" stroke-width="3" x1="4037" x2="3877" y1="1573" y2="1509" /><line stroke="#333" stroke-width="10" x1="4125" x2="4037" y1="1525" y2="1573" /><line stroke="#999" stroke-width="3" x1="4245" x2="4181" y1="1389" y2="1389" /><line stroke="#999" stroke-width="3" x1="4181" x2="4085" y1="1389" y2="1453" /><line stroke="#999" stroke-width="3" x1="4085" x2="4125" y1="1453" y2="1525" /><line stroke="#333" stroke-width="10" x1="3013" x2="2981" y1="1733" y2="1637" /><line stroke="#333" stroke-width="10" x1="2981" x2="2949" y1="1637" y2="1637" /><line stroke="#333" stroke-width="10" x1="2789" x2="2757" y1="1637" y2="1733" /><line stroke="#333" stroke-width="10" x1="2821" x2="2789" y1="1637" y2="1637" /><line stroke="#333" stroke-width="10" x1="2949" x2="2949" y1="1733" y2="1765" /><line stroke="#333" stroke-width="10" x1="2949" x2="2949" y1="1765" y2="1797" /><line stroke="#333" stroke-width="10" x1="2821" x2="2821" y1="1765" y2="1733" /><line stroke="#333" stroke-width="10" x1="2821" x2="2821" y1="1797" y2="1765" /><line stroke="#333" stroke-width="10" x1="2821" x2="2821" y1="1829" y2="1797" /><line stroke="#333" stroke-width="10" x1="2821" x2="2821" y1="1861" y2="1829" /><line stroke="#333" stroke-width="10" x1="2949" x2="2949" y1="1797" y2="1829" /><line stroke="#333" stroke-width="10" x1="2949" x2="2949" y1="1829" y2="1861" /><line stroke="#333" stroke-width="10" x1="3013" x2="2885" y1="2053" y2="1989" /><line stroke="#999" stroke-width="3" x1="2949" x2="2821" y1="1637" y2="1637" /><line stroke="#999" stroke-width="3" x1="2821" x2="2949" y1="1733" y2="1733" /><line stroke="#999" stroke-width="3" x1="2821" x2="2949" y1="1765" y2="1765" /><line stroke="#999" stroke-width="3" x1="2821" x2="2949" y1="1797" y2="1797" /><line stroke="#999" stroke-width="3" x1="2821" x2="2949" y1="1829" y2="1829" /><line stroke="#999" stroke-width="3" x1="2821" x2="2949" y1="1861" y2="1861" /><line stroke="#999" stroke-width="3" x1="3013" x2="3013" y1="2053" y2="1925" /><line stroke="#999" stroke-width="3" x1="3141" x2="3141" y1="1925" y2="2053" /><line stroke="#999" stroke-width="3" x1="3653" x2="3653" y1="1733" y2="1861" /><line stroke="#999" stroke-width="3" x1="3621" x2="3621" y1="1733" y2="1861" /><line stroke="#999" stroke-width="3" x1="3589" x2="3589" y1="1733" y2="1861" /><line stroke="#999" stroke-width="3" x1="3557" x2="3557" y1="1733" y2="1861" /><line stroke="#999" stroke-width="3" x1="3525" x2="3525" y1="1733" y2="1861" /><line stroke="#999" stroke-width="3" x1="3461" x2="3493" y1="1733" y2="1861" /><line stroke="#999" stroke-width="3" x1="3405" x2="3461" y1="1749" y2="1877" /><line stroke="#333" stroke-width="10" x1="3405" x2="3461" y1="1749" y2="1733" /><line stroke="#333" stroke-width="10" x1="3493" x2="3461" y1="1861" y2="1877" /><line stroke="#333" stroke-width="10" x1="3461" x2="3525" y1="1733" y2="1733" /><line stroke="#333" stroke-width="10" x1="3525" x2="3557" y1="1733" y2="1733" /><line stroke="#333" stroke-width="10" x1="3557" x2="3589" y1="1733" y2="1733" /><line stroke="#333" stroke-width="10" x1="3589" x2="3621" y1="1733" y2="1733" /><line stroke="#333" stroke-width="10" x1="3621" x2="3653" y1="1733" y2="1733" /><line stroke="#333" stroke-width="10" x1="3653" x2="3621" y1="1861" y2="1861" /><line stroke="#333" stroke-width="10" x1="3621" x2="3589" y1="1861" y2="1861" /><line stroke="#333" stroke-width="10" x1="3589" x2="3557" y1="1861" y2="1861" /><line stroke="#333" stroke-width="10" x1="3557" x2="3525" y1="1861" y2="1861" /><line stroke="#333" stroke-width="10" x1="3525" x2="3493" y1="1861" y2="1861" /><line stroke="#333" stroke-width="10" x1="3653" x2="3685" y1="1733" y2="1733" /><line stroke="#333" stroke-width="10" x1="3685" x2="3653" y1="1861" y2="1861" /><line stroke="#333" stroke-width="10" x1="3717" x2="3685" y1="1861" y2="1861" /><line stroke="#333" stroke-width="10" x1="3685" x2="3717" y1="1733" y2="1733" /><line stroke="#999" stroke-width="3" x1="3717" x2="3717" y1="1861" y2="1733" /><line stroke="#999" stroke-width="3" x1="3685" x2="3685" y1="1733" y2="1861" /><line stroke="#333" stroke-width="10" x1="3717" x2="3717" y1="1957" y2="1861" /><line stroke="#999" stroke-width="3" x1="3509" x2="3013" y1="1605" y2="1605" /><line stroke="#999" stroke-width="3" x1="3013" x2="2757" y1="1605" y2="1605" /><line stroke="#999" stroke-width="3" x1="2757" x2="2149" y1="1605" y2="1605" /><line stroke="#999" stroke-width="3" x1="2757" x2="2757" y1="1605" y2="1733" /><line stroke="#999" stroke-width="3" x1="3013" x2="3013" y1="1733" y2="1605" /><line stroke="#333" stroke-width="10" x1="3461" x2="3445" y1="1877" y2="1877" /><line stroke="#333" stroke-width="10" x1="3445" x2="3141" y1="1877" y2="2053" /><line stroke="#333" stroke-width="10" x1="3141" x2="3389" y1="1925" y2="1749" /><line stroke="#333" stroke-width="10" x1="3389" x2="3405" y1="1749" y2="1749" /><line stroke="#333" stroke-width="10" x1="2949" x2="2949" y1="1861" y2="1877" /><line stroke="#333" stroke-width="10" x1="2949" x2="3013" y1="1877" y2="1925" /><line stroke="#333" stroke-width="10" x1="2885" x2="2821" y1="1989" y2="1877" /><line stroke="#333" stroke-width="10" x1="2821" x2="2821" y1="1877" y2="1861" /><line stroke="#999" stroke-width="3" x1="3525" x2="3749" y1="1005" y2="1029" /><line stroke="#333" stroke-width="10" x1="3653" x2="3525" y1="837" y2="757" /><line stroke="#333" stroke-width="10" x1="3525" x2="3525" y1="757" y2="741" /><line stroke="#333" stroke-width="10" x1="3717" x2="3733" y1="613" y2="613" /><line stroke="#333" stroke-width="10" x1="3733" x2="3821" y1="613" y2="837" /><line stroke="#333" stroke-width="10" x1="4173" x2="4245" y1="1109" y2="1389" /><line stroke="#333" stroke-width="10" x1="4245" x2="4221" y1="1389" y2="1477" /><line stroke="#999" stroke-width="3" x1="4221" x2="4125" y1="1477" y2="1525" /><line stroke="#333" stroke-width="10" x1="3013" x2="3045" y1="877" y2="965" /><line stroke="#333" stroke-width="10" x1="3045" x2="3205" y1="965" y2="1069" /><line stroke="#333" stroke-width="10" x1="3205" x2="3509" y1="1069" y2="1069" /><line stroke="#333" stroke-width="10" x1="3509" x2="3525" y1="1069" y2="1069" /><line stroke="#999" stroke-width="3" x1="3525" x2="3525" y1="1317" y2="1069" /><line stroke="#999" stroke-width="3" x1="3509" x2="3509" y1="1069" y2="1317" /><line stroke="#333" stroke-width="10" x1="3525" x2="3525" y1="1069" y2="1005" /><line stroke="#333" stroke-width="10" x1="3973" x2="4101" y1="2085" y2="2085" /><line stroke="#333" stroke-width="10" x1="3461" x2="3589" y1="2085" y2="2085" /><line stroke="#333" stroke-width="10" x1="3589" x2="3629" y1="2085" y2="2117" /><line stroke="#333" stroke-width="10" x1="3685" x2="3685" y1="2117" y2="2085" /><line stroke="#333" stroke-width="10" x1="3877" x2="3877" y1="2085" y2="2117" /><line stroke="#333" stroke-width="10" x1="3933" x2="3973" y1="2117" y2="2085" /><line stroke="#333" stroke-width="10" x1="3877" x2="3877" y1="2309" y2="2341" /><line stroke="#333" stroke-width="10" x1="3877" x2="3933" y1="2341" y2="2341" /><line stroke="#333" stroke-width="10" x1="3933" x2="3933" y1="2341" y2="2309" /><line stroke="#333" stroke-width="10" x1="3629" x2="3629" y1="2309" y2="2341" /><line stroke="#333" stroke-width="10" x1="3629" x2="3685" y1="2341" y2="2341" /><line stroke="#333" stroke-width="10" x1="3685" x2="3685" y1="2341" y2="2309" /><line stroke="#333" stroke-width="10" x1="3629" x2="3661" y1="2117" y2="2117" /><line stroke="#333" stroke-width="10" x1="3661" x2="3685" y1="2117" y2="2117" /><line stroke="#333" stroke-width="10" x1="3933" x2="3901" y1="2309" y2="2309" /><line stroke="#333" stroke-width="10" x1="3901" x2="3877" y1="2309" y2="2309" /><line stroke="#333" stroke-width="10" x1="3877" x2="3901" y1="2117" y2="2117" /><line stroke="#333" stroke-width="10" x1="3901" x2="3933" y1="2117" y2="2117" /><line stroke="#333" stroke-width="10" x1="3685" x2="3661" y1="2309" y2="2309" /><line stroke="#333" stroke-width="10" x1="3661" x2="3629" y1="2309" y2="2309" /><line stroke="#999" stroke-width="3" x1="3661" x2="3661" y1="2309" y2="2277" /><line stroke="#999" stroke-width="3" x1="3661" x2="3661" y1="2277" y2="2149" /><line stroke="#999" stroke-width="3" x1="3661" x2="3661" y1="2149" y2="2117" /><line stroke="#999" stroke-width="3" x1="3901" x2="3901" y1="2277" y2="2309" /><line stroke="#999" stroke-width="3" x1="3901" x2="3901" y1="2117" y2="2149" /><line stroke="#999" stroke-width="3" x1="3901" x2="3901" y1="2149" y2="2277" /><line stroke="#333" stroke-width="10" x1="4101" x2="3845" y1="2501" y2="2501" /><line stroke="#333" stroke-width="10" x1="3717" x2="3461" y1="2501" y2="2501" /><line stroke="#333" stroke-width="10" x1="3845" x2="3845" y1="2501" y2="2565" /><line stroke="#333" stroke-width="10" x1="3717" x2="3717" y1="2565" y2="2501" /><line stroke="#999" stroke-width="3" x1="3685" x2="3877" y1="2117" y2="2117" /><line stroke="#999" stroke-width="3" x1="3877" x2="3685" y1="2309" y2="2309" /><line stroke="#999" stroke-width="3" x1="3845" x2="3717" y1="1957" y2="1957" /><line stroke="#333" stroke-width="10" x1="3461" x2="3461" y1="2501" y2="2085" /><line stroke="#333" stroke-width="10" x1="4101" x2="4101" y1="2085" y2="2501" /><line stroke="#999" stroke-width="3" x1="3629" x2="3629" y1="2309" y2="2117" /><line stroke="#999" stroke-width="3" x1="3933" x2="3933" y1="2117" y2="2309" /><line stroke="#999" stroke-width="3" x1="3717" x2="3845" y1="2501" y2="2501" /><line stroke="#333" stroke-width="10" x1="3845" x2="3813" y1="2565" y2="2565" /><line stroke="#333" stroke-width="10" x1="3749" x2="3717" y1="2565" y2="2565" /><line stroke="#333" stroke-width="10" x1="3749" x2="3749" y1="2589" y2="2565" /><line stroke="#333" stroke-width="10" x1="3813" x2="3813" y1="2565" y2="2589" /><line stroke="#333" stroke-width="10" x1="3813" x2="3813" y1="2589" y2="2605" /><line stroke="#333" stroke-width="10" x1="3813" x2="3813" y1="2605" y2="2629" /><line stroke="#333" stroke-width="10" x1="3749" x2="3749" y1="2629" y2="2605" /><line stroke="#333" stroke-width="10" x1="3749" x2="3749" y1="2605" y2="2589" /><line stroke="#999" stroke-width="3" x1="3749" x2="3813" y1="2605" y2="2605" /><line stroke="#999" stroke-width="3" x1="3813" x2="3749" y1="2589" y2="2589" /><line stroke="#333" stroke-width="10" x1="3813" x2="3877" y1="2629" y2="2629" /><line stroke="#333" stroke-width="10" x1="3685" x2="3749" y1="2629" y2="2629" /><line stroke="#333" stroke-width="10" x1="3877" x2="3877" y1="2629" y2="2821" /><line stroke="#333" stroke-width="10" x1="3685" x2="3685" y1="2821" y2="2757" /><line stroke="#333" stroke-width="10" x1="3685" x2="3685" y1="2757" y2="2693" /><line stroke="#333" stroke-width="10" x1="3685" x2="3685" y1="2693" y2="2629" /><line stroke="#333" stroke-width="10" x1="3877" x2="3685" y1="2821" y2="2821" /><line stroke="#999" stroke-width="3" x1="3749" x2="3813" y1="2629" y2="2629" /><line stroke="#333" stroke-width="10" x1="3717" x2="3717" y1="1973" y2="1957" /><line stroke="#333" stroke-width="10" x1="3845" x2="3845" y1="1957" y2="1973" /><line stroke="#333" stroke-width="10" x1="3685" x2="3717" y1="2085" y2="1989" /><line stroke="#333" stroke-width="10" x1="3717" x2="3717" y1="1989" y2="1973" /><line stroke="#333" stroke-width="10" x1="3845" x2="3845" y1="1973" y2="1989" /><line stroke="#333" stroke-width="10" x1="3845" x2="3877" y1="1989" y2="2085" /><line stroke="#999" stroke-width="3" x1="3845" x2="3717" y1="1973" y2="1973" /><line stroke="#999" stroke-width="3" x1="3717" x2="3845" y1="1989" y2="1989" /><line stroke="#999" stroke-width="3" x1="3797" x2="3765" y1="2549" y2="2549" /><line stroke="#999" stroke-width="3" x1="3765" x2="3797" y1="2557" y2="2557" /><line stroke="#999" stroke-width="3" x1="3797" x2="3797" y1="2557" y2="2549" /><line stroke="#999" stroke-width="3" x1="3765" x2="3765" y1="2549" y2="2557" /><line stroke="#999" stroke-width="3" x1="3813" x2="3749" y1="2565" y2="2565" /><line stroke="#999" stroke-width="3" x1="3797" x2="3765" y1="2797" y2="2797" /><line stroke="#999" stroke-width="3" x1="3765" x2="3797" y1="2805" y2="2805" /><line stroke="#999" stroke-width="3" x1="3797" x2="3797" y1="2805" y2="2797" /><line stroke="#999" stroke-width="3" x1="3765" x2="3765" y1="2797" y2="2805" /><line stroke="#333" stroke-width="10" x1="3525" x2="3653" y1="869" y2="869" /><line stroke="#999" stroke-width="3" x1="533" x2="565" y1="1221" y2="1221" /><line stroke="#999" stroke-width="3" x1="565" x2="581" y1="1221" y2="1205" /><line stroke="#999" stroke-width="3" x1="581" x2="581" y1="1205" y2="1173" /><line stroke="#999" stroke-width="3" x1="581" x2="565" y1="1173" y2="1157" /><line stroke="#999" stroke-width="3" x1="565" x2="533" y1="1157" y2="1157" /><line stroke="#999" stroke-width="3" x1="533" x2="517" y1="1157" y2="1173" /><line stroke="#999" stroke-width="3" x1="517" x2="517" y1="1173" y2="1205" /><line stroke="#999" stroke-width="3" x1="517" x2="533" y1="1205" y2="1221" /><line stroke="#333" stroke-width="10" x1="2437" x2="2373" y1="325" y2="325" /><line stroke="#333" stroke-width="10" x1="2373" x2="2373" y1="325" y2="69" /><line stroke="#333" stroke-width="10" x1="2373" x2="2437" y1="581" y2="581" /><line stroke="#333" stroke-width="10" x1="3333" x2="3333" y1="69" y2="453" /><line stroke="#333" stroke-width="10" x1="3333" x2="3269" y1="453" y2="453" /><line stroke="#333" stroke-width="10" x1="2949" x2="2949" y1="709" y2="773" /><line stroke="#333" stroke-width="10" x1="2373" x2="2437" y1="5" y2="5" /><line stroke="#333" stroke-width="10" x1="2437" x2="3269" y1="5" y2="5" /><line stroke="#333" stroke-width="10" x1="3269" x2="3333" y1="5" y2="5" /><line stroke="#333" stroke-width="10" x1="3333" x2="3333" y1="5" y2="69" /><line stroke="#333" stroke-width="10" x1="2373" x2="2373" y1="69" y2="5" /><line stroke="#999" stroke-width="3" x1="2437" x2="2437" y1="325" y2="69" /><line stroke="#999" stroke-width="3" x1="2437" x2="3269" y1="69" y2="69" /><line stroke="#999" stroke-width="3" x1="3269" x2="3269" y1="69" y2="453" /><line stroke="#333" stroke-width="10" x1="2949" x2="2437" y1="773" y2="773" /><line stroke="#333" stroke-width="10" x1="2437" x2="2373" y1="773" y2="773" /><line stroke="#333" stroke-width="10" x1="2373" x2="2373" y1="773" y2="709" /><line stroke="#333" stroke-width="10" x1="2373" x2="2373" y1="709" y2="581" /><line stroke="#999" stroke-width="3" x1="2949" x2="2437" y1="709" y2="709" /><line stroke="#999" stroke-width="3" x1="2437" x2="2437" y1="709" y2="581" /><line stroke="#333" stroke-width="10" x1="3269" x2="3269" y1="645" y2="709" /><line stroke="#333" stroke-width="10" x1="3397" x2="3293" y1="741" y2="645" /><line stroke="#333" stroke-width="10" x1="3269" x2="3293" y1="517" y2="517" /><line stroke="#333" stroke-width="10" x1="3293" x2="3269" y1="645" y2="645" /><line stroke="#999" stroke-width="3" x1="2437" x2="2437" y1="517" y2="389" /><line stroke="#999" stroke-width="3" x1="3269" x2="3269" y1="517" y2="645" /><line stroke="#999" stroke-width="3" x1="2757" x2="2757" y1="261" y2="197" /><line stroke="#999" stroke-width="3" x1="2757" x2="2565" y1="197" y2="197" /><line stroke="#999" stroke-width="3" x1="2565" x2="2565" y1="197" y2="261" /><line stroke="#999" stroke-width="3" x1="2565" x2="2757" y1="261" y2="261" /><line stroke="#333" stroke-width="10" x1="2437" x2="2437" y1="581" y2="557" /><line stroke="#333" stroke-width="10" x1="2437" x2="2437" y1="557" y2="517" /><line stroke="#333" stroke-width="10" x1="2437" x2="2437" y1="389" y2="349" /><line stroke="#333" stroke-width="10" x1="2437" x2="2437" y1="349" y2="325" /><line stroke="#333" stroke-width="10" x1="3269" x2="3269" y1="453" y2="477" /><line stroke="#333" stroke-width="10" x1="3269" x2="3269" y1="477" y2="517" /><line stroke="#333" stroke-width="10" x1="3269" x2="2973" y1="709" y2="709" /><line stroke="#333" stroke-width="10" x1="2973" x2="2949" y1="709" y2="709" /><line stroke="#333" stroke-width="10" x1="2885" x2="3109" y1="549" y2="549" /><line stroke="#333" stroke-width="10" x1="3109" x2="3109" y1="549" y2="229" /><line stroke="#333" stroke-width="10" x1="3109" x2="2885" y1="229" y2="229" /><line stroke="#333" stroke-width="10" x1="2885" x2="2885" y1="229" y2="261" /><line stroke="#333" stroke-width="10" x1="2885" x2="2917" y1="261" y2="261" /><line stroke="#333" stroke-width="10" x1="2917" x2="2949" y1="261" y2="261" /><line stroke="#333" stroke-width="10" x1="2949" x2="2981" y1="261" y2="261" /><line stroke="#333" stroke-width="10" x1="2981" x2="3077" y1="261" y2="261" /><line stroke="#333" stroke-width="10" x1="3077" x2="3077" y1="261" y2="517" /><line stroke="#333" stroke-width="10" x1="3077" x2="2981" y1="517" y2="517" /><line stroke="#333" stroke-width="10" x1="2981" x2="2949" y1="517" y2="517" /><line stroke="#333" stroke-width="10" x1="2949" x2="2917" y1="517" y2="517" /><line stroke="#333" stroke-width="10" x1="2917" x2="2885" y1="517" y2="517" /><line stroke="#333" stroke-width="10" x1="2885" x2="2885" y1="517" y2="549" /><line stroke="#999" stroke-width="3" x1="2917" x2="2917" y1="261" y2="517" /><line stroke="#999" stroke-width="3" x1="2949" x2="2949" y1="261" y2="517" /><line stroke="#999" stroke-width="3" x1="2981" x2="2981" y1="261" y2="517" /><line stroke="#999" stroke-width="3" x1="2757" x2="2757" y1="581" y2="517" /><line stroke="#999" stroke-width="3" x1="2757" x2="2565" y1="517" y2="517" /><line stroke="#999" stroke-width="3" x1="2565" x2="2565" y1="517" y2="581" /><line stroke="#999" stroke-width="3" x1="2565" x2="2757" y1="581" y2="581" /><line stroke="#999" stroke-width="3" x1="2765" x2="2557" y1="509" y2="509" /><line stroke="#999" stroke-width="3" x1="2557" x2="2557" y1="509" y2="589" /><line stroke="#999" stroke-width="3" x1="2557" x2="2765" y1="589" y2="589" /><line stroke="#999" stroke-width="3" x1="2765" x2="2765" y1="589" y2="509" /><line stroke="#999" stroke-width="3" x1="2557" x2="2765" y1="269" y2="269" /><line stroke="#999" stroke-width="3" x1="2765" x2="2765" y1="269" y2="189" /><line stroke="#999" stroke-width="3" x1="2765" x2="2557" y1="189" y2="189" /><line stroke="#999" stroke-width="3" x1="2557" x2="2557" y1="189" y2="269" /><line stroke="#999" stroke-width="3" x1="3397" x2="3525" y1="741" y2="517" /><line stroke="#333" stroke-width="10" x1="4293" x2="4101" y1="1861" y2="1925" /><line stroke="#333" stroke-width="10" x1="3973" x2="3973" y1="1925" y2="1701" /><line stroke="#333" stroke-width="10" x1="4101" x2="4133" y1="1701" y2="1605" /><line stroke="#999" stroke-width="3" x1="4101" x2="4101" y1="1925" y2="1701" /><line stroke="#333" stroke-width="10" x1="4221" x2="4245" y1="1477" y2="1477" /><line stroke="#333" stroke-width="10" x1="4245" x2="4293" y1="1477" y2="1541" /><line stroke="#333" stroke-width="10" x1="4133" x2="4125" y1="1605" y2="1549" /><line stroke="#333" stroke-width="10" x1="4125" x2="4125" y1="1549" y2="1525" /><line stroke="#333" stroke-width="10" x1="4101" x2="4077" y1="1925" y2="1925" /><line stroke="#333" stroke-width="10" x1="4077" x2="3973" y1="1925" y2="1925" /><line stroke="#333" stroke-width="10" x1="3973" x2="4077" y1="1701" y2="1701" /><line stroke="#333" stroke-width="10" x1="4077" x2="4101" y1="1701" y2="1701" /><line stroke="#333" stroke-width="10" x1="3141" x2="3117" y1="2053" y2="2053" /><line stroke="#333" stroke-width="10" x1="3117" x2="3037" y1="2053" y2="2053" /><line stroke="#333" stroke-width="10" x1="3037" x2="3013" y1="2053" y2="2053" /><line stroke="#333" stroke-width="10" x1="3013" x2="3037" y1="1925" y2="1925" /><line stroke="#333" stroke-width="10" x1="3037" x2="3117" y1="1925" y2="1925" /><line stroke="#333" stroke-width="10" x1="3117" x2="3141" y1="1925" y2="1925" /><line stroke="#333" stroke-width="10" x1="2949" x2="2949" y1="1637" y2="1661" /><line stroke="#333" stroke-width="10" x1="2949" x2="2949" y1="1661" y2="1733" /><line stroke="#333" stroke-width="10" x1="2821" x2="2821" y1="1733" y2="1661" /><line stroke="#333" stroke-width="10" x1="2821" x2="2821" y1="1661" y2="1637" /><line stroke="#333" stroke-width="10" x1="4293" x2="4293" y1="1541" y2="1797" /><line stroke="#333" stroke-width="10" x1="4453" x2="4357" y1="1861" y2="1861" /><line stroke="#333" stroke-width="10" x1="4517" x2="4453" y1="1765" y2="1861" /><line stroke="#333" stroke-width="10" x1="4357" x2="4389" y1="1797" y2="1733" /><line stroke="#333" stroke-width="10" x1="4389" x2="4325" y1="1733" y2="1509" /><line stroke="#333" stroke-width="10" x1="4325" x2="4325" y1="1509" y2="1349" /><line stroke="#333" stroke-width="10" x1="4325" x2="4421" y1="1349" y2="1221" /><line stroke="#333" stroke-width="10" x1="4453" x2="4517" y1="1509" y2="1765" /><line stroke="#333" stroke-width="10" x1="4453" x2="4453" y1="1349" y2="1509" /><line stroke="#333" stroke-width="10" x1="4581" x2="4453" y1="1221" y2="1349" /><line stroke="#333" stroke-width="10" x1="4421" x2="4269" y1="1221" y2="989" /><line stroke="#333" stroke-width="10" x1="4357" x2="4581" y1="837" y2="1221" /><line stroke="#333" stroke-width="10" x1="4269" x2="4229" y1="989" y2="989" /><line stroke="#333" stroke-width="10" x1="4133" x2="4357" y1="837" y2="837" /><line stroke="#999" stroke-width="3" x1="4077" x2="4173" y1="997" y2="1109" /><line stroke="#999" stroke-width="3" x1="4293" x2="4293" y1="1797" y2="1861" /><line stroke="#999" stroke-width="3" x1="4357" x2="4357" y1="1797" y2="1861" /><line stroke="#333" stroke-width="10" x1="4077" x2="4093" y1="997" y2="997" /><line stroke="#333" stroke-width="10" x1="4093" x2="4133" y1="997" y2="837" /><line stroke="#333" stroke-width="10" x1="4229" x2="4189" y1="989" y2="1109" /><line stroke="#333" stroke-width="10" x1="4189" x2="4173" y1="1109" y2="1109" /><line stroke="#333" stroke-width="10" x1="4293" x2="4309" y1="1797" y2="1797" /><line stroke="#333" stroke-width="10" x1="4309" x2="4357" y1="1797" y2="1797" /><line stroke="#333" stroke-width="10" x1="4357" x2="4309" y1="1861" y2="1861" /><line stroke="#333" stroke-width="10" x1="4309" x2="4293" y1="1861" y2="1861" /></svg>