<?xml version="1.0" encoding="utf-8" ?>
<svg baseProfile="tiny" height="1024" version="1.2" viewBox="0 0 6626 7146" width="949" xmlns="http://www.w3.org/2000/svg" xmlns:ev="http://www.w3.org/2001/xml-events" xmlns:xlink="http://www.w3.org/1999/xlink"><defs /><line stroke="#333" stroke-width="10" x1="2837" x2="2869" y1="6789" y2="6789" /><line stroke="#333" stroke-width="10" x1="2965" x2="3093" y1="6789" y2="6661" /><line stroke="#333" stroke-width="10" x1="3093" x2="3253" y1="6661" y2="6597" /><line stroke="#333" stroke-width="10" x1="3381" x2="3541" y1="6597" y2="6661" /><line stroke="#333" stroke-width="10" x1="3541" x2="3669" y1="6661" y2="6789" /><line stroke="#333" stroke-width="10" x1="3669" x2="3797" y1="6789" y2="6789" /><line stroke="#333" stroke-width="10" x1="3797" x2="3669" y1="6981" y2="6981" /><line stroke="#333" stroke-width="10" x1="3669" x2="3541" y1="6981" y2="7109" /><line stroke="#333" stroke-width="10" x1="3541" x2="3381" y1="7109" y2="7141" /><line stroke="#333" stroke-width="10" x1="3381" x2="3253" y1="7141" y2="7141" /><line stroke="#333" stroke-width="10" x1="3253" x2="3093" y1="7141" y2="7109" /><line stroke="#333" stroke-width="10" x1="3093" x2="2965" y1="7109" y2="6981" /><line stroke="#333" stroke-width="10" x1="2869" x2="2837" y1="6981" y2="6981" /><line stroke="#999" stroke-width="3" x1="3221" x2="3221" y1="6917" y2="6853" /><line stroke="#999" stroke-width="3" x1="3221" x2="3285" y1="6853" y2="6789" /><line stroke="#999" stroke-width="3" x1="3285" x2="3349" y1="6789" y2="6789" /><line stroke="#999" stroke-width="3" x1="3349" x2="3413" y1="6789" y2="6853" /><line stroke="#999" stroke-width="3" x1="3413" x2="3413" y1="6853" y2="6917" /><line stroke="#999" stroke-width="3" x1="3413" x2="3349" y1="6917" y2="6981" /><line stroke="#999" stroke-width="3" x1="3349" x2="3285" y1="6981" y2="6981" /><line stroke="#999" stroke-width="3" x1="3285" x2="3221" y1="6981" y2="6917" /><line stroke="#333" stroke-width="10" x1="3253" x2="3253" y1="6597" y2="6565" /><line stroke="#333" stroke-width="10" x1="3253" x2="3253" y1="6565" y2="6533" /><line stroke="#333" stroke-width="10" x1="3253" x2="3253" y1="6533" y2="6501" /><line stroke="#333" stroke-width="10" x1="3253" x2="3253" y1="6501" y2="6469" /><line stroke="#333" stroke-width="10" x1="3253" x2="3253" y1="6469" y2="6437" /><line stroke="#333" stroke-width="10" x1="3253" x2="3253" y1="6437" y2="6405" /><line stroke="#333" stroke-width="10" x1="3253" x2="3253" y1="6405" y2="6373" /><line stroke="#333" stroke-width="10" x1="3253" x2="3253" y1="6373" y2="6341" /><line stroke="#333" stroke-width="10" x1="3253" x2="3253" y1="6341" y2="6309" /><line stroke="#333" stroke-width="10" x1="3253" x2="3253" y1="6309" y2="6277" /><line stroke="#333" stroke-width="10" x1="3253" x2="3253" y1="6277" y2="6245" /><line stroke="#333" stroke-width="10" x1="3253" x2="3253" y1="6245" y2="6213" /><line stroke="#333" stroke-width="10" x1="3381" x2="3381" y1="6213" y2="6245" /><line stroke="#999" stroke-width="3" x1="3381" x2="3381" y1="6245" y2="6277" /><line stroke="#333" stroke-width="10" x1="3381" x2="3381" y1="6309" y2="6341" /><line stroke="#333" stroke-width="10" x1="3381" x2="3381" y1="6341" y2="6373" /><line stroke="#333" stroke-width="10" x1="3381" x2="3381" y1="6373" y2="6405" /><line stroke="#333" stroke-width="10" x1="3381" x2="3381" y1="6405" y2="6437" /><line stroke="#333" stroke-width="10" x1="3381" x2="3381" y1="6437" y2="6469" /><line stroke="#333" stroke-width="10" x1="3381" x2="3381" y1="6469" y2="6501" /><line stroke="#333" stroke-width="10" x1="3381" x2="3381" y1="6501" y2="6533" /><line stroke="#333" stroke-width="10" x1="3381" x2="3381" y1="6533" y2="6565" /><line stroke="#333" stroke-width="10" x1="3381" x2="3381" y1="6565" y2="6597" /><line stroke="#333" stroke-width="10" x1="3253" x2="3221" y1="6213" y2="6213" /><line stroke="#333" stroke-width="10" x1="3413" x2="3381" y1="6213" y2="6213" /><line stroke="#999" stroke-width="3" x1="2869" x2="2869" y1="6981" y2="6789" /><line stroke="#999" stroke-width="3" x1="3669" x2="3669" y1="6789" y2="6981" /><line stroke="#333" stroke-width="10" x1="3797" x2="3861" y1="6789" y2="6789" /><line stroke="#333" stroke-width="10" x1="3861" x2="3861" y1="6789" y2="6981" /><line stroke="#333" stroke-width="10" x1="3861" x2="3797" y1="6981" y2="6981" /><line stroke="#999" stroke-width="3" x1="3797" x2="3797" y1="6789" y2="6981" /><line stroke="#333" stroke-width="10" x1="2837" x2="2677" y1="6981" y2="6981" /><line stroke="#333" stroke-width="10" x1="2677" x2="2677" y1="6981" y2="6789" /><line stroke="#333" stroke-width="10" x1="2677" x2="2837" y1="6789" y2="6789" /><line stroke="#333" stroke-width="10" x1="3541" x2="3541" y1="5829" y2="5893" /><line stroke="#333" stroke-width="10" x1="3541" x2="3541" y1="5701" y2="5733" /><line stroke="#333" stroke-width="10" x1="3093" x2="3093" y1="5733" y2="5701" /><line stroke="#333" stroke-width="10" x1="3093" x2="3093" y1="5893" y2="5829" /><line stroke="#999" stroke-width="3" x1="3381" x2="3253" y1="6597" y2="6597" /><line stroke="#999" stroke-width="3" x1="3381" x2="3253" y1="6565" y2="6565" /><line stroke="#999" stroke-width="3" x1="3381" x2="3253" y1="6533" y2="6533" /><line stroke="#999" stroke-width="3" x1="3381" x2="3253" y1="6501" y2="6501" /><line stroke="#999" stroke-width="3" x1="3381" x2="3253" y1="6469" y2="6469" /><line stroke="#999" stroke-width="3" x1="3381" x2="3253" y1="6437" y2="6437" /><line stroke="#999" stroke-width="3" x1="3381" x2="3253" y1="6405" y2="6405" /><line stroke="#999" stroke-width="3" x1="3381" x2="3253" y1="6373" y2="6373" /><line stroke="#999" stroke-width="3" x1="3381" x2="3253" y1="6341" y2="6341" /><line stroke="#999" stroke-width="3" x1="3381" x2="3253" y1="6309" y2="6309" /><line stroke="#999" stroke-width="3" x1="3381" x2="3253" y1="6277" y2="6277" /><line stroke="#999" stroke-width="3" x1="3381" x2="3253" y1="6245" y2="6245" /><line stroke="#999" stroke-width="3" x1="3381" x2="3253" y1="6213" y2="6213" /><line stroke="#999" stroke-width="3" x1="3541" x2="3541" y1="5733" y2="5829" /><line stroke="#999" stroke-width="3" x1="3093" x2="3093" y1="5829" y2="5733" /><line stroke="#333" stroke-width="10" x1="3061" x2="3061" y1="5701" y2="5733" /><line stroke="#333" stroke-width="10" x1="3061" x2="3093" y1="5733" y2="5733" /><line stroke="#333" stroke-width="10" x1="3061" x2="3061" y1="5829" y2="5893" /><line stroke="#333" stroke-width="10" x1="3093" x2="3061" y1="5829" y2="5829" /><line stroke="#333" stroke-width="10" x1="3541" x2="3573" y1="5733" y2="5733" /><line stroke="#333" stroke-width="10" x1="3573" x2="3573" y1="5733" y2="5701" /><line stroke="#333" stroke-width="10" x1="3573" x2="3541" y1="5829" y2="5829" /><line stroke="#333" stroke-width="10" x1="3573" x2="3573" y1="5893" y2="5829" /><line stroke="#333" stroke-width="10" x1="3093" x2="3157" y1="5701" y2="5701" /><line stroke="#333" stroke-width="10" x1="3157" x2="3157" y1="5701" y2="5637" /><line stroke="#333" stroke-width="10" x1="3157" x2="3221" y1="5637" y2="5637" /><line stroke="#333" stroke-width="10" x1="3221" x2="3221" y1="5637" y2="5573" /><line stroke="#333" stroke-width="10" x1="3413" x2="3413" y1="5573" y2="5637" /><line stroke="#333" stroke-width="10" x1="3413" x2="3477" y1="5637" y2="5637" /><line stroke="#333" stroke-width="10" x1="3477" x2="3477" y1="5637" y2="5701" /><line stroke="#333" stroke-width="10" x1="3477" x2="3541" y1="5701" y2="5701" /><line stroke="#333" stroke-width="10" x1="3541" x2="3477" y1="5893" y2="5893" /><line stroke="#333" stroke-width="10" x1="3477" x2="3477" y1="5893" y2="5957" /><line stroke="#333" stroke-width="10" x1="3477" x2="3413" y1="5957" y2="5957" /><line stroke="#333" stroke-width="10" x1="3221" x2="3157" y1="5957" y2="5957" /><line stroke="#333" stroke-width="10" x1="3157" x2="3157" y1="5957" y2="5893" /><line stroke="#333" stroke-width="10" x1="3157" x2="3093" y1="5893" y2="5893" /><line stroke="#999" stroke-width="3" x1="3221" x2="3157" y1="5893" y2="5893" /><line stroke="#999" stroke-width="3" x1="3221" x2="3221" y1="5957" y2="5893" /><line stroke="#999" stroke-width="3" x1="3413" x2="3413" y1="5893" y2="5957" /><line stroke="#999" stroke-width="3" x1="3477" x2="3413" y1="5893" y2="5893" /><line stroke="#999" stroke-width="3" x1="3413" x2="3413" y1="5637" y2="5701" /><line stroke="#999" stroke-width="3" x1="3413" x2="3477" y1="5701" y2="5701" /><line stroke="#999" stroke-width="3" x1="3157" x2="3221" y1="5701" y2="5701" /><line stroke="#999" stroke-width="3" x1="3221" x2="3221" y1="5701" y2="5637" /><line stroke="#999" stroke-width="3" x1="3221" x2="3221" y1="5061" y2="4229" /><line stroke="#999" stroke-width="3" x1="3413" x2="3413" y1="4229" y2="5061" /><line stroke="#999" stroke-width="3" x1="2613" x2="2885" y1="4613" y2="3773" /><line stroke="#999" stroke-width="3" x1="2885" x2="2229" y1="3773" y2="3269" /><line stroke="#999" stroke-width="3" x1="2229" x2="3061" y1="3269" y2="3269" /><line stroke="#999" stroke-width="3" x1="3317" x2="3573" y1="2493" y2="3269" /><line stroke="#999" stroke-width="3" x1="3573" x2="4405" y1="3269" y2="3269" /><line stroke="#999" stroke-width="3" x1="4405" x2="3741" y1="3269" y2="3773" /><line stroke="#999" stroke-width="3" x1="3029" x2="3221" y1="5253" y2="5061" /><line stroke="#999" stroke-width="3" x1="3413" x2="3605" y1="5061" y2="5253" /><line stroke="#999" stroke-width="3" x1="3221" x2="3413" y1="5573" y2="5573" /><line stroke="#333" stroke-width="10" x1="3413" x2="3413" y1="5957" y2="6021" /><line stroke="#333" stroke-width="10" x1="3413" x2="3381" y1="6021" y2="6021" /><line stroke="#333" stroke-width="10" x1="3381" x2="3381" y1="6021" y2="6037" /><line stroke="#333" stroke-width="10" x1="3381" x2="3381" y1="6037" y2="6053" /><line stroke="#333" stroke-width="10" x1="3381" x2="3381" y1="6053" y2="6069" /><line stroke="#333" stroke-width="10" x1="3381" x2="3413" y1="6069" y2="6069" /><line stroke="#333" stroke-width="10" x1="3413" x2="3413" y1="6069" y2="6213" /><line stroke="#333" stroke-width="10" x1="3221" x2="3221" y1="6213" y2="6069" /><line stroke="#333" stroke-width="10" x1="3221" x2="3253" y1="6069" y2="6069" /><line stroke="#333" stroke-width="10" x1="3253" x2="3253" y1="6069" y2="6053" /><line stroke="#333" stroke-width="10" x1="3253" x2="3253" y1="6053" y2="6037" /><line stroke="#333" stroke-width="10" x1="3253" x2="3253" y1="6037" y2="6021" /><line stroke="#333" stroke-width="10" x1="3253" x2="3221" y1="6021" y2="6021" /><line stroke="#333" stroke-width="10" x1="3221" x2="3221" y1="6021" y2="5957" /><line stroke="#999" stroke-width="3" x1="3253" x2="3381" y1="6053" y2="6053" /><line stroke="#999" stroke-width="3" x1="3381" x2="3253" y1="6037" y2="6037" /><line stroke="#999" stroke-width="3" x1="3381" x2="3253" y1="6021" y2="6021" /><line stroke="#999" stroke-width="3" x1="3253" x2="3381" y1="6069" y2="6069" /><line stroke="#999" stroke-width="3" x1="3061" x2="3317" y1="3269" y2="2493" /><line stroke="#333" stroke-width="10" x1="3381" x2="3389" y1="6245" y2="6245" /><line stroke="#333" stroke-width="10" x1="3389" x2="3381" y1="6309" y2="6309" /><line stroke="#999" stroke-width="3" x1="3389" x2="3389" y1="6309" y2="6245" /><line stroke="#333" stroke-width="10" x1="3389" x2="3445" y1="6245" y2="6245" /><line stroke="#333" stroke-width="10" x1="3445" x2="3445" y1="6245" y2="6309" /><line stroke="#333" stroke-width="10" x1="3445" x2="3389" y1="6309" y2="6309" /><line stroke="#999" stroke-width="3" x1="3381" x2="3381" y1="6277" y2="6309" /><line stroke="#999" stroke-width="3" x1="2837" x2="2837" y1="6853" y2="6917" /><line stroke="#999" stroke-width="3" x1="2837" x2="2837" y1="6789" y2="6853" /><line stroke="#999" stroke-width="3" x1="2837" x2="2837" y1="6917" y2="6981" /><line stroke="#333" stroke-width="10" x1="2869" x2="2901" y1="6789" y2="6789" /><line stroke="#333" stroke-width="10" x1="2901" x2="2933" y1="6789" y2="6789" /><line stroke="#333" stroke-width="10" x1="2933" x2="2965" y1="6789" y2="6789" /><line stroke="#333" stroke-width="10" x1="2965" x2="2933" y1="6981" y2="6981" /><line stroke="#333" stroke-width="10" x1="2933" x2="2901" y1="6981" y2="6981" /><line stroke="#333" stroke-width="10" x1="2901" x2="2869" y1="6981" y2="6981" /><line stroke="#999" stroke-width="3" x1="2965" x2="2965" y1="6981" y2="6789" /><line stroke="#999" stroke-width="3" x1="2933" x2="2933" y1="6981" y2="6789" /><line stroke="#999" stroke-width="3" x1="2901" x2="2901" y1="6981" y2="6789" /><line stroke="#333" stroke-width="10" x1="2965" x2="3061" y1="5573" y2="5701" /><line stroke="#333" stroke-width="10" x1="2829" x2="2965" y1="5573" y2="5573" /><line stroke="#333" stroke-width="10" x1="2709" x2="2829" y1="5701" y2="5573" /><line stroke="#333" stroke-width="10" x1="2709" x2="2709" y1="5893" y2="5701" /><line stroke="#333" stroke-width="10" x1="2837" x2="2709" y1="6021" y2="5893" /><line stroke="#333" stroke-width="10" x1="2965" x2="2837" y1="6021" y2="6021" /><line stroke="#333" stroke-width="10" x1="3061" x2="2965" y1="5893" y2="6021" /><line stroke="#333" stroke-width="10" x1="3573" x2="3669" y1="5701" y2="5573" /><line stroke="#333" stroke-width="10" x1="3669" x2="3797" y1="5573" y2="5573" /><line stroke="#333" stroke-width="10" x1="3797" x2="3925" y1="5573" y2="5701" /><line stroke="#333" stroke-width="10" x1="3925" x2="3925" y1="5701" y2="5893" /><line stroke="#333" stroke-width="10" x1="3925" x2="3797" y1="5893" y2="6021" /><line stroke="#333" stroke-width="10" x1="3797" x2="3669" y1="6021" y2="6021" /><line stroke="#333" stroke-width="10" x1="3669" x2="3573" y1="6021" y2="5893" /><line stroke="#333" stroke-width="10" x1="3029" x2="2141" y1="5253" y2="5917" /><line stroke="#333" stroke-width="10" x1="2141" x2="5" y1="5917" y2="4869" /><line stroke="#333" stroke-width="10" x1="5" x2="1285" y1="4869" y2="613" /><line stroke="#333" stroke-width="10" x1="1285" x2="5173" y1="613" y2="613" /><line stroke="#333" stroke-width="10" x1="5173" x2="6621" y1="613" y2="4933" /><line stroke="#333" stroke-width="10" x1="6621" x2="4381" y1="4933" y2="5917" /><line stroke="#333" stroke-width="10" x1="4381" x2="3605" y1="5917" y2="5253" /><line stroke="#999" stroke-width="3" x1="3221" x2="3221" y1="4229" y2="4165" /><line stroke="#999" stroke-width="3" x1="3413" x2="3413" y1="4165" y2="4229" /><line stroke="#999" stroke-width="3" x1="3413" x2="3221" y1="4165" y2="4165" /><line stroke="#999" stroke-width="3" x1="3349" x2="3413" y1="4229" y2="4229" /><line stroke="#999" stroke-width="3" x1="4021" x2="3413" y1="4613" y2="4165" /><line stroke="#999" stroke-width="3" x1="3741" x2="4021" y1="3773" y2="4613" /><line stroke="#999" stroke-width="3" x1="3221" x2="2613" y1="4165" y2="4613" /><line stroke="#333" stroke-width="10" x1="3149" x2="3173" y1="3861" y2="3861" /><line stroke="#333" stroke-width="10" x1="3173" x2="3173" y1="3861" y2="3837" /><line stroke="#333" stroke-width="10" x1="3173" x2="3173" y1="3837" y2="3829" /><line stroke="#333" stroke-width="10" x1="3173" x2="3173" y1="3829" y2="3749" /><line stroke="#333" stroke-width="10" x1="3173" x2="3237" y1="3749" y2="3749" /><line stroke="#333" stroke-width="10" x1="3237" x2="3237" y1="3749" y2="3829" /><line stroke="#333" stroke-width="10" x1="3237" x2="3237" y1="3829" y2="3837" /><line stroke="#333" stroke-width="10" x1="3237" x2="3237" y1="3837" y2="3861" /><line stroke="#333" stroke-width="10" x1="3237" x2="3261" y1="3861" y2="3861" /><line stroke="#333" stroke-width="10" x1="3261" x2="3277" y1="3861" y2="3781" /><line stroke="#333" stroke-width="10" x1="3277" x2="3237" y1="3781" y2="3717" /><line stroke="#333" stroke-width="10" x1="3237" x2="3173" y1="3717" y2="3717" /><line stroke="#333" stroke-width="10" x1="3173" x2="3109" y1="3717" y2="3781" /><line stroke="#333" stroke-width="10" x1="3109" x2="3149" y1="3781" y2="3861" /><line stroke="#999" stroke-width="3" x1="3173" x2="3237" y1="3861" y2="3861" /><line stroke="#999" stroke-width="3" x1="3173" x2="3237" y1="3837" y2="3837" /><line stroke="#999" stroke-width="3" x1="3237" x2="3173" y1="3829" y2="3829" /><line stroke="#999" stroke-width="3" x1="3149" x2="3149" y1="3861" y2="3909" /><line stroke="#999" stroke-width="3" x1="3149" x2="3261" y1="3909" y2="3909" /><line stroke="#999" stroke-width="3" x1="3261" x2="3261" y1="3909" y2="3861" /><line stroke="#999" stroke-width="3" x1="3149" x2="3093" y1="3909" y2="3973" /><line stroke="#999" stroke-width="3" x1="3093" x2="3093" y1="3973" y2="4037" /><line stroke="#999" stroke-width="3" x1="3093" x2="3221" y1="4037" y2="4165" /><line stroke="#333" stroke-width="10" x1="3373" x2="3397" y1="3861" y2="3861" /><line stroke="#333" stroke-width="10" x1="3397" x2="3397" y1="3861" y2="3837" /><line stroke="#333" stroke-width="10" x1="3397" x2="3397" y1="3837" y2="3829" /><line stroke="#333" stroke-width="10" x1="3397" x2="3397" y1="3829" y2="3749" /><line stroke="#333" stroke-width="10" x1="3397" x2="3461" y1="3749" y2="3749" /><line stroke="#999" stroke-width="3" x1="3461" x2="3461" y1="3749" y2="3829" /><line stroke="#333" stroke-width="10" x1="3461" x2="3461" y1="3829" y2="3837" /><line stroke="#333" stroke-width="10" x1="3461" x2="3461" y1="3837" y2="3861" /><line stroke="#333" stroke-width="10" x1="3461" x2="3485" y1="3861" y2="3861" /><line stroke="#333" stroke-width="10" x1="3485" x2="3525" y1="3861" y2="3781" /><line stroke="#333" stroke-width="10" x1="3525" x2="3461" y1="3781" y2="3717" /><line stroke="#333" stroke-width="10" x1="3461" x2="3397" y1="3717" y2="3717" /><line stroke="#333" stroke-width="10" x1="3397" x2="3357" y1="3717" y2="3781" /><line stroke="#333" stroke-width="10" x1="3357" x2="3373" y1="3781" y2="3861" /><line stroke="#999" stroke-width="3" x1="3397" x2="3461" y1="3861" y2="3861" /><line stroke="#999" stroke-width="3" x1="3397" x2="3461" y1="3837" y2="3837" /><line stroke="#999" stroke-width="3" x1="3461" x2="3397" y1="3829" y2="3829" /><line stroke="#999" stroke-width="3" x1="3373" x2="3373" y1="3861" y2="3909" /><line stroke="#999" stroke-width="3" x1="3373" x2="3485" y1="3909" y2="3909" /><line stroke="#999" stroke-width="3" x1="3485" x2="3485" y1="3909" y2="3861" /><line stroke="#999" stroke-width="3" x1="3317" x2="3261" y1="3949" y2="3909" /><line stroke="#999" stroke-width="3" x1="3093" x2="3541" y1="3973" y2="3973" /><line stroke="#999" stroke-width="3" x1="3541" x2="3485" y1="3973" y2="3909" /><line stroke="#999" stroke-width="3" x1="3093" x2="3541" y1="4037" y2="4037" /><line stroke="#999" stroke-width="3" x1="3541" x2="3541" y1="4037" y2="3973" /><line stroke="#999" stroke-width="3" x1="3413" x2="3541" y1="4165" y2="4037" /><line stroke="#999" stroke-width="3" x1="3221" x2="3285" y1="4229" y2="4229" /><line stroke="#999" stroke-width="3" x1="3285" x2="3349" y1="4229" y2="4229" /><line stroke="#999" stroke-width="3" x1="3373" x2="3317" y1="3909" y2="3949" /><line stroke="#999" stroke-width="3" x1="3189" x2="3253" y1="2245" y2="2245" /><line stroke="#999" stroke-width="3" x1="3253" x2="3253" y1="2245" y2="2213" /><line stroke="#999" stroke-width="3" x1="3253" x2="3253" y1="2213" y2="2181" /><line stroke="#999" stroke-width="3" x1="3253" x2="3253" y1="2181" y2="2149" /><line stroke="#999" stroke-width="3" x1="3253" x2="3253" y1="2149" y2="2117" /><line stroke="#999" stroke-width="3" x1="3253" x2="3253" y1="2117" y2="2085" /><line stroke="#999" stroke-width="3" x1="3253" x2="3253" y1="2085" y2="2053" /><line stroke="#999" stroke-width="3" x1="3253" x2="3253" y1="2053" y2="2021" /><line stroke="#999" stroke-width="3" x1="3253" x2="3253" y1="2021" y2="1989" /><line stroke="#999" stroke-width="3" x1="3253" x2="3253" y1="1989" y2="1957" /><line stroke="#999" stroke-width="3" x1="3253" x2="3253" y1="1957" y2="1925" /><line stroke="#999" stroke-width="3" x1="3253" x2="3253" y1="1925" y2="1893" /><line stroke="#999" stroke-width="3" x1="3253" x2="3253" y1="1893" y2="1861" /><line stroke="#999" stroke-width="3" x1="3189" x2="3189" y1="1413" y2="2245" /><line stroke="#999" stroke-width="3" x1="3445" x2="3509" y1="2245" y2="2245" /><line stroke="#999" stroke-width="3" x1="3509" x2="3509" y1="2245" y2="1413" /><line stroke="#999" stroke-width="3" x1="3445" x2="3445" y1="1861" y2="1893" /><line stroke="#999" stroke-width="3" x1="3445" x2="3445" y1="1893" y2="1925" /><line stroke="#999" stroke-width="3" x1="3445" x2="3445" y1="1925" y2="1957" /><line stroke="#999" stroke-width="3" x1="3445" x2="3445" y1="1957" y2="1989" /><line stroke="#999" stroke-width="3" x1="3445" x2="3445" y1="1989" y2="2021" /><line stroke="#999" stroke-width="3" x1="3445" x2="3445" y1="2021" y2="2053" /><line stroke="#999" stroke-width="3" x1="3445" x2="3445" y1="2053" y2="2085" /><line stroke="#999" stroke-width="3" x1="3445" x2="3445" y1="2085" y2="2117" /><line stroke="#999" stroke-width="3" x1="3445" x2="3445" y1="2117" y2="2149" /><line stroke="#999" stroke-width="3" x1="3445" x2="3445" y1="2149" y2="2181" /><line stroke="#999" stroke-width="3" x1="3445" x2="3445" y1="2181" y2="2213" /><line stroke="#999" stroke-width="3" x1="3445" x2="3445" y1="2213" y2="2245" /><line stroke="#999" stroke-width="3" x1="3253" x2="3445" y1="2245" y2="2245" /><line stroke="#999" stroke-width="3" x1="3253" x2="3445" y1="2213" y2="2213" /><line stroke="#999" stroke-width="3" x1="3253" x2="3445" y1="2181" y2="2181" /><line stroke="#999" stroke-width="3" x1="3253" x2="3445" y1="2149" y2="2149" /><line stroke="#999" stroke-width="3" x1="3253" x2="3445" y1="2117" y2="2117" /><line stroke="#999" stroke-width="3" x1="3253" x2="3445" y1="2085" y2="2085" /><line stroke="#999" stroke-width="3" x1="3253" x2="3445" y1="2053" y2="2053" /><line stroke="#999" stroke-width="3" x1="3253" x2="3445" y1="2021" y2="2021" /><line stroke="#999" stroke-width="3" x1="3253" x2="3445" y1="1989" y2="1989" /><line stroke="#999" stroke-width="3" x1="3253" x2="3445" y1="1957" y2="1957" /><line stroke="#999" stroke-width="3" x1="3253" x2="3445" y1="1925" y2="1925" /><line stroke="#999" stroke-width="3" x1="3253" x2="3445" y1="1893" y2="1893" /><line stroke="#999" stroke-width="3" x1="3253" x2="3445" y1="1861" y2="1861" /><line stroke="#999" stroke-width="3" x1="3509" x2="3189" y1="1413" y2="1413" /><line stroke="#999" stroke-width="3" x1="3253" x2="3253" y1="1861" y2="1829" /><line stroke="#999" stroke-width="3" x1="3253" x2="3445" y1="1829" y2="1829" /><line stroke="#999" stroke-width="3" x1="3445" x2="3445" y1="1829" y2="1861" /><line stroke="#999" stroke-width="3" x1="3253" x2="3253" y1="1829" y2="1797" /><line stroke="#999" stroke-width="3" x1="3253" x2="3445" y1="1797" y2="1797" /><line stroke="#999" stroke-width="3" x1="3445" x2="3445" y1="1797" y2="1829" /><line stroke="#999" stroke-width="3" x1="3157" x2="3157" y1="4269" y2="5061" /><line stroke="#999" stroke-width="3" x1="3157" x2="3029" y1="5061" y2="5253" /><line stroke="#999" stroke-width="3" x1="2549" x2="3157" y1="4709" y2="4269" /><line stroke="#999" stroke-width="3" x1="2837" x2="2549" y1="3781" y2="4709" /><line stroke="#999" stroke-width="3" x1="2117" x2="2837" y1="3229" y2="3781" /><line stroke="#999" stroke-width="3" x1="3029" x2="2117" y1="3229" y2="3229" /><line stroke="#999" stroke-width="3" x1="3317" x2="3029" y1="2421" y2="3229" /><line stroke="#999" stroke-width="3" x1="3605" x2="3317" y1="3229" y2="2421" /><line stroke="#999" stroke-width="3" x1="4501" x2="3605" y1="3229" y2="3229" /><line stroke="#999" stroke-width="3" x1="3797" x2="4501" y1="3781" y2="3229" /><line stroke="#999" stroke-width="3" x1="4085" x2="3797" y1="4709" y2="3781" /><line stroke="#999" stroke-width="3" x1="3477" x2="4085" y1="4269" y2="4709" /><line stroke="#999" stroke-width="3" x1="3477" x2="3477" y1="5061" y2="4269" /><line stroke="#999" stroke-width="3" x1="3605" x2="3477" y1="5253" y2="5061" /><line stroke="#333" stroke-width="10" x1="3605" x2="3413" y1="5253" y2="5549" /><line stroke="#333" stroke-width="10" x1="3413" x2="3413" y1="5549" y2="5573" /><line stroke="#333" stroke-width="10" x1="3221" x2="3221" y1="5573" y2="5549" /><line stroke="#333" stroke-width="10" x1="3221" x2="3029" y1="5549" y2="5253" /><line stroke="#999" stroke-width="3" x1="3285" x2="3349" y1="1605" y2="1605" /><line stroke="#999" stroke-width="3" x1="3349" x2="3413" y1="1605" y2="1605" /><line stroke="#999" stroke-width="3" x1="3413" x2="3413" y1="1605" y2="1541" /><line stroke="#999" stroke-width="3" x1="3413" x2="3413" y1="1541" y2="1477" /><line stroke="#999" stroke-width="3" x1="3413" x2="3349" y1="1477" y2="1477" /><line stroke="#999" stroke-width="3" x1="3349" x2="3285" y1="1477" y2="1477" /><line stroke="#999" stroke-width="3" x1="3285" x2="3285" y1="1477" y2="1541" /><line stroke="#999" stroke-width="3" x1="3285" x2="3285" y1="1541" y2="1605" /><line stroke="#999" stroke-width="3" x1="3285" x2="3349" y1="1541" y2="1541" /><line stroke="#999" stroke-width="3" x1="3349" x2="3413" y1="1541" y2="1541" /><line stroke="#999" stroke-width="3" x1="3349" x2="3349" y1="1477" y2="1541" /><line stroke="#999" stroke-width="3" x1="3349" x2="3349" y1="1541" y2="1605" /><line stroke="#999" stroke-width="3" x1="3253" x2="3445" y1="1637" y2="1637" /><line stroke="#999" stroke-width="3" x1="3445" x2="3445" y1="1637" y2="1445" /><line stroke="#999" stroke-width="3" x1="3445" x2="3253" y1="1445" y2="1445" /><line stroke="#999" stroke-width="3" x1="3253" x2="3253" y1="1445" y2="1637" /><line stroke="#999" stroke-width="3" x1="3269" x2="3429" y1="1461" y2="1461" /><line stroke="#999" stroke-width="3" x1="3429" x2="3429" y1="1461" y2="1621" /><line stroke="#999" stroke-width="3" x1="3429" x2="3269" y1="1621" y2="1621" /><line stroke="#999" stroke-width="3" x1="3269" x2="3269" y1="1621" y2="1461" /><line stroke="#333" stroke-width="10" x1="3669" x2="3349" y1="389" y2="389" /><line stroke="#333" stroke-width="10" x1="3349" x2="3349" y1="389" y2="5" /><line stroke="#333" stroke-width="10" x1="3349" x2="3669" y1="5" y2="5" /><line stroke="#333" stroke-width="10" x1="3669" x2="3669" y1="5" y2="389" /><line stroke="#999" stroke-width="3" x1="3461" x2="3557" y1="149" y2="149" /><line stroke="#999" stroke-width="3" x1="3557" x2="3557" y1="149" y2="245" /><line stroke="#999" stroke-width="3" x1="3557" x2="3461" y1="245" y2="245" /><line stroke="#999" stroke-width="3" x1="3461" x2="3461" y1="245" y2="149" /><line stroke="#333" stroke-width="10" x1="3461" x2="3469" y1="3749" y2="3749" /><line stroke="#333" stroke-width="10" x1="3469" x2="3461" y1="3829" y2="3829" /><line stroke="#333" stroke-width="10" x1="3493" x2="3469" y1="3829" y2="3829" /><line stroke="#333" stroke-width="10" x1="3469" x2="3493" y1="3749" y2="3765" /><line stroke="#333" stroke-width="10" x1="3493" x2="3493" y1="3765" y2="3829" /><line stroke="#999" stroke-width="3" x1="3469" x2="3469" y1="3829" y2="3749" /></svg>